<svg width="225" height="146" viewBox="0 0 225 146" fill="none" xmlns="http://www.w3.org/2000/svg">
<path d="M222.451 51.0615C201.984 50.2658 133.493 30.6678 100.456 46.2187C67.4273 61.7664 36.7956 127.928 24.2829 144.362M223.652 51.3104C203.154 50.4069 133.648 29.9531 100.408 45.2653C67.1713 60.5848 36.7373 126.683 24.2172 143.216" stroke="#A1A1A1" stroke-width="2" stroke-linecap="round"/>
<path d="M28.1896 123.785C26.3743 127.663 26.9045 132.587 24.2171 143.216ZM28.1896 123.785C26.7024 129.369 25.7281 136.01 24.2171 143.216Z" stroke="#A1A1A1" stroke-width="2" stroke-linecap="round"/>
<path d="M39.7525 130.883C35.0479 132.994 32.6823 136.137 24.2171 143.216ZM39.7525 130.883C34.7379 134.214 30.2264 138.677 24.2171 143.216Z" stroke="#A1A1A1" stroke-width="2" stroke-linecap="round"/>
</svg>
