<svg width="190" height="84" viewBox="0 0 190 84" fill="none" xmlns="http://www.w3.org/2000/svg">
<path d="M1 26.0301C17.1417 22.6533 68.38 -4.68149 99.2086 4.62718C130.037 13.9359 171.541 68.7358 185.972 81.8922M2.82918 25.2486C18.7676 21.6012 67.1606 -6.62539 98.1068 2.98388C129.053 12.6032 173.97 69.818 188.517 82.9243" stroke="#A1A1A1" stroke-width="2" stroke-linecap="round"/>
<path d="M164.995 71.0002C173.488 74.7979 181.907 77.3029 188.517 82.9242ZM164.995 71.0002C171.263 73.4051 177.35 77.6135 188.517 82.9242Z" stroke="#A1A1A1" stroke-width="2" stroke-linecap="round"/>
<path d="M178.687 59.6274C182.645 67.0323 186.603 73.2448 188.518 82.9242ZM178.687 59.6274C181.34 65.0583 183.929 72.1726 188.518 82.9242Z" stroke="#A1A1A1" stroke-width="2" stroke-linecap="round"/>
</svg>
