<svg
  viewBox="0 0 235 48"
  fill="none"
  xmlns="http://www.w3.org/2000/svg"
>
  <path
    d="M119.132 38.7064H98.2979C98.349 28.8 98.2469 18.8425 98.2979 8.93616H119.183V14.4L103.558 14.2979L103.506 21.1404L118.826 21.2425L118.775 26.5021L103.455 26.4L103.404 33.1404L119.081 33.2425L119.132 38.7064Z"
    fill="black"
  />
  <path
    d="M143.234 8.93616H148.902V38.7064H143.541L130.417 18.6894V38.7064H125.055V8.93616H130.417L143.234 27.4213V8.93616Z"
    fill="black"
  />
  <path
    d="M227.898 38.7064L219.472 28.9021H213.804V38.7064H208.443V8.93616C213.14 8.93616 217.889 8.93616 222.638 8.93616C229.634 9.03828 233.311 13.8383 233.311 18.9957C233.311 23.0808 231.421 27.217 225.753 28.3404L234.894 38.7064H227.898ZM213.804 14.3489V23.8979H222.536C226.111 23.8979 227.643 21.5489 227.643 19.1489C227.643 16.7489 226.111 14.4 222.587 14.3489H213.804Z"
    fill="black"
  />
  <path
    d="M89.3106 8.93616L80.4255 32.0681L71.4894 8.93616H65.5149L77.4128 38.7064H83.3872L95.2851 8.93616H89.3106Z"
    fill="black"
  />
  <path
    d="M175.711 38.7064H154.877C154.928 28.8 154.825 18.8425 154.877 8.93616H175.762V14.4L160.136 14.2979L160.085 21.1404L175.404 21.2425L175.353 26.5021L160.034 26.4L159.983 33.1404L175.66 33.2425L175.711 38.7064Z"
    fill="black"
  />
  <path
    d="M202.519 38.7064H181.685C181.736 28.8 181.634 18.8425 181.685 8.93616H202.57V14.4L186.894 14.2979V21.1915L202.213 21.2936L202.162 26.5532L186.843 26.4511L186.792 33.1915L202.468 33.2936L202.519 38.7064Z"
    fill="black"
  />
  <path
    d="M26.9618 38.3897L29.6171 43.1386L32.3235 47.9386H26.9618H21.6001L24.2554 43.1386L26.9618 38.3897Z"
    fill="#E64577"
  />
  <path
    d="M32.3617 47.9386L29.6553 43.1386L27 38.3897H32.3617H37.7234L35.017 43.1386L32.3617 47.9386Z"
    fill="#D94E9C"
  />
  <path
    d="M32.3617 28.7795L35.017 33.5795L37.7234 38.3284H32.3617H27L29.6553 33.5795L32.3617 28.7795Z"
    fill="#A8417B"
  />
  <path
    d="M37.7616 38.3284L35.0552 33.5795L32.3999 28.7795H37.7616H43.1233L40.4169 33.5795L37.7616 38.3284Z"
    fill="#964E96"
  />
  <path
    d="M37.7616 19.2206L40.4169 23.9695L43.1233 28.7185H37.7616H32.3999L35.0552 23.9695L37.7616 19.2206Z"
    fill="#4483CF"
  />
  <path
    d="M43.1615 28.7185L40.4551 23.9695L37.7998 19.2206H43.1615H48.5232L45.8168 23.9695L43.1615 28.7185Z"
    fill="#0096D6"
  />
  <path
    d="M43.1615 9.61029L45.8168 14.3592L48.5232 19.1592H43.1615H37.7998L40.4551 14.3592L43.1615 9.61029Z"
    fill="#2AC5E0"
  />
  <path
    d="M26.9618 19.2206L29.6171 23.9695L32.3235 28.7185H26.9618H21.6001L24.2554 23.9695L26.9618 19.2206Z"
    fill="#A8417B"
  />
  <path
    d="M32.3617 9.61029L35.017 14.3592L37.7234 19.1592H32.3617H27L29.6553 14.3592L32.3617 9.61029Z"
    fill="#4483CF"
  />
  <path
    d="M37.7616 19.1592L35.0552 14.3592L32.3999 9.61029H37.7616H43.1233L40.4169 14.3592L37.7616 19.1592Z"
    fill="#269EB3"
  />
  <path
    d="M32.3617 28.7185L29.6553 23.9695L27 19.2206H32.3617H37.7234L35.017 23.9695L32.3617 28.7185Z"
    fill="#3367A6"
  />
  <path
    d="M21.5619 47.9386L18.8555 43.1386L16.2002 38.3897H21.5619H26.9236L24.2172 43.1386L21.5619 47.9386Z"
    fill="#FA6996"
  />
  <path
    d="M21.5619 28.7795L24.2172 33.5795L26.9236 38.3284H21.5619H16.2002L18.8555 33.5795L21.5619 28.7795Z"
    fill="#E64577"
  />
  <path
    d="M26.9618 38.3284L24.2554 33.5795L21.6001 28.7795H26.9618H32.3235L29.6171 33.5795L26.9618 38.3284Z"
    fill="#7F345F"
  />
  <path
    d="M16.1615 38.3284L13.4551 33.5795L10.7998 28.7795H16.1615H21.5232L18.8168 33.5795L16.1615 38.3284Z"
    fill="#FF948A"
  />
  <path
    d="M16.1615 19.2206L18.8168 23.9695L21.5232 28.7185H16.1615H10.7998L13.4551 23.9695L16.1615 19.2206Z"
    fill="#FF6445"
  />
  <path
    d="M21.5619 28.7185L18.8555 23.9695L16.2002 19.2206H21.5619H26.9236L24.2172 23.9695L21.5619 28.7185Z"
    fill="#CC2C00"
  />
  <path
    d="M16.1615 0L18.8168 4.8L21.5232 9.54894H16.1615H10.7998L13.4551 4.8L16.1615 0Z"
    fill="#E09600"
  />
  <path
    d="M10.7616 28.7185L8.05522 23.9695L5.3999 19.2206H10.7616H16.1233L13.4169 23.9695L10.7616 28.7185Z"
    fill="#FFA238"
  />
  <path
    d="M16.1615 19.1592L13.4551 14.3592L10.7998 9.61029H16.1615H21.5232L18.8168 14.3592L16.1615 19.1592Z"
    fill="#D46B00"
  />
  <path
    d="M5.3617 19.1592L2.65532 14.3592L0 9.61029H5.3617H10.7234L8.01702 14.3592L5.3617 19.1592Z"
    fill="#FFE970"
  />
  <path
    d="M5.3617 0L8.01702 4.8L10.7234 9.54894H5.3617H0L2.65532 4.8L5.3617 0Z"
    fill="#FFE970"
  />
  <path
    d="M10.7616 9.54894L8.05522 4.8L5.3999 0H10.7616H16.1233L13.4169 4.8L10.7616 9.54894Z"
    fill="#FFE137"
  />
  <path
    d="M10.7616 9.61029L13.4169 14.3592L16.1233 19.1592H10.7616H5.3999L8.05522 14.3592L10.7616 9.61029Z"
    fill="#FF8900"
  />
  <path
    d="M21.5619 9.61029L24.2172 14.3592L26.9236 19.1592H21.5619H16.2002L18.8555 14.3592L21.5619 9.61029Z"
    fill="#B3600C"
  />
  <path
    d="M48.5617 19.1592L45.8553 14.3592L43.2 9.61029H48.5617H53.9234L51.217 14.3592L48.5617 19.1592Z"
    fill="#40DFFA"
  />
  <path
    d="M48.5617 0L51.217 4.8L53.9234 9.54894H48.5617H43.2L45.8553 4.8L48.5617 0Z"
    fill="#8AEFFF"
  />
  <path
    d="M37.7616 0L40.4169 4.8L43.1233 9.54894H37.7616H32.3999L35.0552 4.8L37.7616 0Z"
    fill="#40DFFA"
  />
  <path
    d="M43.1615 9.54894L40.4551 4.8L37.7998 0H43.1615H48.5232L45.8168 4.8L43.1615 9.54894Z"
    fill="#8AEFFF"
  />
</svg>
